<?xml version="1.0" encoding="UTF-8" standalone="no"?>
<!DOCTYPE svg PUBLIC "-//W3C//DTD SVG 1.0//EN"
"http://www.w3.org/TR/2001/REC-SVG-20010904/DTD/svg10.dtd">
<!-- Created with Sodipodi ("http://www.sodipodi.com/") -->
<svg
   id="svg834"
   sodipodi:version="0.34"
   xmlns="http://www.w3.org/2000/svg"
   xmlns:sodipodi="http://sodipodi.sourceforge.net/DTD/sodipodi-0.dtd"
   xmlns:xlink="http://www.w3.org/1999/xlink"
   width="210mm"
   height="297mm"
   xml:space="preserve"
   sodipodi:docbase="/home/gerben/rega/vakken/BSNW/bs/cursus/images"
   sodipodi:docname="/home/gerben/rega/vakken/BSNW/bs/cursus/images/fig0103.svg"><defs
   id="defs836" /><sodipodi:namedview
   id="base" /><rect
   style="font-size:12;fill:none;fill-rule:evenodd;stroke:#000000;stroke-width:0.798253;"
   id="rect723"
   x="40.2536926"
   y="131.597931"
   width="255.440948"
   rx="12.772047"
   ry="12.772047"
   height="70.2462616" /><rect
   style="font-size:12;fill:none;fill-rule:evenodd;stroke:#000000;stroke-width:0.798253;"
   id="rect724"
   x="41.7983704"
   y="253.165344"
   width="255.440948"
   rx="12.772047"
   ry="12.772047"
   height="70.2462616" /><rect
   style="font-size:12;fill:none;fill-rule:evenodd;stroke:#000000;stroke-width:0.798706;"
   id="rect725"
   x="41.0260925"
   y="18.2834625"
   width="255.731064"
   ry="12.772047"
   height="70.2462616"
   rx="19.7509556" /><text
   style="font-size:12;font-weight:normal;stroke-width:1;font-family:FreeSans;"
   x="56.2394942"
   y="109.763534"
   id="text726"
   sodipodi:linespacing="100%"
   xml:space="preserve"
   transform="scale(1.589604,1.589604)"><tspan
   id="tspan727">Besturingssysteem</tspan></text><text
   style="font-size:12;font-weight:normal;stroke-width:1;font-family:FreeSans;"
   x="81.5040213"
   y="185.557047"
   id="text729"
   sodipodi:linespacing="100%"
   xml:space="preserve"
   transform="scale(1.589604,1.589604)"><tspan
   id="tspan730">Hardware</tspan></text><text
   style="font-size:12;font-weight:normal;stroke-width:1;font-family:FreeSans;"
   x="78.1030508"
   y="38.3426411"
   id="text732"
   sodipodi:linespacing="100%"
   xml:space="preserve"
   transform="scale(1.589604,1.589604)"><tspan
   id="tspan733">Software</tspan></text><text
   style="fill:#000000;stroke:none;font-family:Nimbus Sans L;font-style:italic;font-weight:bold;font-size:12;fill-opacity:1;stroke-opacity:1;stroke-width:1pt;stroke-linejoin:miter;stroke-linecap:butt;text-anchor:start;writing-mode:lr;"
   x="27.8205882"
   y="61.5801627"
   id="text747"
   sodipodi:linespacing="100%"
   xml:space="preserve"
   transform="scale(1.91965,1.919651)"><tspan
   x="27.8205891"
   y="61.580162"
   sodipodi:role="line"
   id="tspan750"
   style="fill:#000000;fill-opacity:1;">System Call</tspan></text><text
   style="fill:#000000;stroke:none;font-family:Nimbus Sans L;font-style:italic;font-weight:bold;font-size:12;fill-opacity:1;stroke-opacity:1;stroke-width:1pt;stroke-linejoin:miter;stroke-linecap:butt;text-anchor:start;writing-mode:lr;"
   x="80.1343499"
   y="122.733279"
   id="text757"
   sodipodi:linespacing="100%"
   xml:space="preserve"
   transform="scale(1.91965,1.919651)"><tspan
   x="80.1343536"
   y="122.733276"
   sodipodi:role="line"
   id="tspan758"
   style="fill:#000000;fill-opacity:1;">Interrupt</tspan></text><g
   id="g1545"
   transform="translate(130.8898,32.72244)"><path
   d="M 76.1828 119.796L 71.9488 104.399L 76.1828 107.094L 80.4169 78.9949L 61.1712 87.848L 74.2583 43.5829L 86.5755 44.3527L 70.4091 77.8402L 91.9642 67.0626L 80.4169 107.863L 86.1906 105.939L 76.1828 119.796z"
   id="path1546"
   style="stroke:none; fill:#000000" /></g><g
   id="g879"
   transform="matrix(-1,-1.224606e-16,1.224606e-16,-1,207.6729,308.8125)"><path
   d="M 76.1828 119.796L 71.9488 104.399L 76.1828 107.094L 80.4169 78.9949L 61.1712 87.848L 74.2583 43.5829L 86.5755 44.3527L 70.4091 77.8402L 91.9642 67.0626L 80.4169 107.863L 86.1906 105.939L 76.1828 119.796z"
   id="path880"
   style="stroke:none; fill:#000000" /></g></svg>
