<?xml version="1.0" encoding="UTF-8" standalone="no"?>
<!DOCTYPE svg PUBLIC "-//W3C//DTD SVG 20010904//EN"
"http://www.w3.org/TR/2001/REC-SVG-20010904/DTD/svg10.dtd">
<!-- Created with Sodipodi ("http://www.sodipodi.com/") -->
<svg
   xmlns="http://www.w3.org/2000/svg"
   xmlns:xlink="http://www.w3.org/1999/xlink"
   version="1.0"
   x="0"
   y="0"
   width="744.094482"
   height="1052.36218"
   id="svg849"
   xml:space="preserve"
   xmlns:sodipodi="http://sodipodi.sourceforge.net/DTD/sodipodi-0.dtd"
   sodipodi:version="0.34"
   sodipodi:docname="/home/gerben/rega/vakken/BSNW/bs/cursus/images/fig0102.svg"
   sodipodi:docbase="/home/gerben/rega/vakken/BSNW/bs/cursus/images/"><sodipodi:namedview
   id="base" /><defs
   id="defs851" /><path
   d="M 51.04195 106.1861 C 47.02178 106.1861 43.78533 109.4226 43.78533 113.4428 L 43.78533 138.8414 C 43.78533 142.8614 47.02178 146.0984 51.04195 146.0984 L 181.6611 146.0984 C 185.6813 146.0984 188.9178 142.8614 188.9178 138.8414 L 188.9178 113.4428 C 188.9178 109.4226 185.6813 106.1861 181.6611 106.1861 L 168.0299 92.30412 L 133.7072 92.30412 L 116.3515 106.1861 L 82.66844 82.53522 L 51.04195 106.1861 z "
   style="font-size:12;fill:none;fill-rule:evenodd;stroke:#000000;stroke-width:0.453539;"
   id="path674" /><rect
   width="146.279114"
   height="33.9472656"
   rx="11.2976189"
   ry="6.17222977"
   x="44.2443504"
   y="21.6311035"
   style="font-size:12;fill:none;fill-rule:evenodd;stroke:#000000;stroke-width:0.41993;"
   id="rect673" /><path
   d="M 212.9993 106.1861 C 208.9791 106.1861 205.7426 109.4226 205.7426 113.4428 L 205.7426 138.8414 C 205.7426 142.8614 208.9791 146.0984 212.9993 146.0984 L 343.6184 146.0984 C 347.6386 146.0984 350.8751 142.8614 350.8751 138.8414 L 350.8751 113.4428 C 350.8751 109.4226 347.6386 106.1861 343.6184 106.1861 L 306.725 86.39142 L 277.0297 106.7003 L 261.7306 106.7003 L 251.573 121.0964 L 244.1116 106.1861 L 212.9993 106.1861 z "
   style="font-size:12;fill:none;fill-rule:evenodd;stroke:#000000;stroke-width:0.453539;"
   id="path675" /><path
   d="M 213.2289 61.91142 C 209.2075 61.91142 205.97 65.14892 205.97 69.17042 L 205.97 94.57672 C 205.97 98.59822 209.5117 103.5593 213.5331 103.5593 L 245.0044 103.5987 L 251.6764 117.3097 L 261.4138 104.1451 L 276.7417 104.3213 L 306.5645 83.68442 L 344.2957 103.7621 C 348.3172 103.7621 351.1491 98.59822 351.1491 94.57672 L 351.1491 69.17042 C 351.1491 65.14892 347.9116 61.91142 343.8901 61.91142 L 213.2289 61.91142 z "
   style="font-size:12;fill:none;fill-rule:evenodd;stroke:#000000;stroke-width:0.453685;"
   id="path676" /><path
   d="M 51.25592 61.36462 C 47.23452 61.36462 43.99702 64.60212 43.99702 68.62362 L 43.99702 94.02992 C 43.99702 98.05142 47.53872 103.0125 51.56012 103.0125 L 82.84917 79.54172 L 116.3119 103.2762 L 133.3393 89.56502 L 169.0792 89.92352 L 182.3227 103.2153 C 186.3442 103.2153 189.1761 98.05142 189.1761 94.02992 L 189.1761 68.62362 C 189.1761 64.60212 185.9386 61.36462 181.9171 61.36462 L 51.25592 61.36462 z "
   style="font-size:12;fill:none;fill-rule:evenodd;stroke:#000000;stroke-width:0.453685;"
   id="path677" /><rect
   width="146.279114"
   height="32.7887917"
   rx="11.2976189"
   ry="5.96159792"
   x="207.589828"
   y="22.7894287"
   style="font-size:12;fill:none;fill-rule:evenodd;stroke:#000000;stroke-width:0.412703;"
   id="rect690" /><rect
   width="150.216095"
   height="90.3613968"
   x="40.9387016"
   y="58.6414185"
   style="font-size:12;fill:none;fill-rule:evenodd;stroke:#000000;stroke-width:0.853856;stroke-dasharray:3.4155 0.8538 ;stroke-dashoffset:0;"
   id="rect700" /><rect
   width="150.216095"
   height="90.3613968"
   x="203.511856"
   y="58.6413574"
   style="font-size:12;fill:none;fill-rule:evenodd;stroke:#000000;stroke-width:0.853856;stroke-dasharray:3.4155 0.8538 ;stroke-dashoffset:0;"
   id="rect701" /><text
   x="160.077286"
   y="185.997131"
   transform="scale(0.865022,0.865022)"
   style="font-size:12;font-weight:normal;font-family:FreeSans;"
   id="text702"
   xml:space="preserve"><tspan
   id="tspan703">Platform 1   =   Platform 2</tspan></text><text
   x="81.5080948"
   y="155.194275"
   transform="scale(0.865022,0.865022)"
   style="font-size:12;font-weight:normal;font-family:FreeSans;"
   id="text705"
   xml:space="preserve"><tspan
   id="tspan706">Hardware Platform 1</tspan></text><text
   x="270.788452"
   y="155.194275"
   transform="scale(0.865022,0.865022)"
   style="font-size:12;font-weight:normal;font-family:FreeSans;"
   id="text708"
   xml:space="preserve"><tspan
   id="tspan709">Hardware Platform 2</tspan></text><text
   x="81.5080948"
   y="89.1246948"
   transform="scale(0.865022,0.865022)"
   style="font-size:12;font-weight:normal;font-family:FreeSans;"
   id="text711"
   xml:space="preserve"><tspan
   id="tspan712">Besturingssysteem</tspan></text><text
   x="270.788452"
   y="89.1246948"
   transform="scale(0.865022,0.865022)"
   style="font-size:12;font-weight:normal;font-family:FreeSans;"
   id="text714"
   xml:space="preserve"><tspan
   id="tspan715">Besturingssysteem</tspan></text><text
   x="96.6862411"
   y="48.5006676"
   transform="scale(0.865022,0.865022)"
   style="font-size:12;font-weight:normal;font-family:FreeSans;"
   id="text717"
   xml:space="preserve"><tspan
   id="tspan718">Toepassingen</tspan></text><text
   x="287.305817"
   y="48.5006676"
   transform="scale(0.865022,0.865022)"
   style="font-size:12;font-weight:normal;font-family:FreeSans;"
   id="text720"
   xml:space="preserve"><tspan
   id="tspan721">Toepassingen</tspan></text></svg>
