<?xml version="1.0" encoding="UTF-8" standalone="no"?>
<!DOCTYPE svg PUBLIC "-//W3C//DTD SVG 20010904//EN"
"http://www.w3.org/TR/2001/REC-SVG-20010904/DTD/svg10.dtd">
<!-- Created with Sodipodi ("http://www.sodipodi.com/") -->
<svg
   xmlns="http://www.w3.org/2000/svg"
   xmlns:xlink="http://www.w3.org/1999/xlink"
   version="1.0"
   x="0"
   y="0"
   width="744.094482"
   height="1052.36218"
   id="svg759"
   xml:space="preserve"
   xmlns:sodipodi="http://sodipodi.sourceforge.net/DTD/sodipodi-0.dtd"
   sodipodi:version="0.34"
   sodipodi:docname="/home/gerben/rega/vakken/BSNW/bs/cursus/images/fig0101.svg"
   sodipodi:docbase="/home/gerben/rega/vakken/BSNW/bs/cursus/images/"><sodipodi:namedview
   id="base" /><defs
   id="defs761" /><path
   d="M 263.1668 44.78776 C 256.1422 44.78776 250.3948 50.53516 250.3948 57.55976 L 250.3948 101.4637 C 251.2329 107.4507 245.6851 116.6306 238.5408 117.0297 L 95.77315 117.4288 C 88.74845 117.4288 83.00105 123.0964 83.00105 130.2008 L 83.00105 174.9029 C 83.00105 181.9275 88.74845 187.675 95.77315 187.675 L 325.6699 187.675 C 332.7744 187.675 338.442 181.9275 338.442 174.9029 L 338.442 147.2036 L 338.442 130.2008 L 338.442 57.55976 C 338.442 50.53516 332.7744 44.78776 325.6699 44.78776 L 263.1668 44.78776 z "
   style="font-size:12;fill:none;fill-rule:evenodd;stroke:#000000;stroke-width:0.766323;"
   id="path793" /><rect
   width="165.36969"
   height="70.2462616"
   rx="12.772047"
   ry="12.772047"
   x="83.0140152"
   y="44.7505188"
   style="font-size:12;fill:none;fill-rule:evenodd;stroke:#000000;stroke-width:0.642278;"
   id="rect794" /><rect
   width="255.440948"
   height="70.2462616"
   rx="12.772047"
   ry="12.772047"
   x="83.0139847"
   y="190.502258"
   style="font-size:12;fill:none;fill-rule:evenodd;stroke:#000000;stroke-width:0.798253;"
   id="rect795" /><rect
   width="255.440948"
   height="70.2462616"
   rx="12.772047"
   ry="12.772047"
   x="83.0139847"
   y="267.275269"
   style="font-size:12;fill:none;fill-rule:evenodd;stroke:#000000;stroke-width:0.798253;"
   id="rect796" /><rect
   width="255.440948"
   height="70.2462616"
   rx="12.772047"
   ry="12.772047"
   x="83.0139847"
   y="340.151093"
   style="font-size:12;fill:none;fill-rule:evenodd;stroke:#000000;stroke-width:0.798253;"
   id="rect797" /><rect
   width="255.440948"
   height="70.2462616"
   rx="12.772047"
   ry="12.772047"
   x="83.0139847"
   y="413.026886"
   style="font-size:12;fill:none;fill-rule:evenodd;stroke:#000000;stroke-width:0.798253;"
   id="rect798" /><text
   x="102.968018"
   y="47.3921776"
   transform="scale(1.589604,1.589604)"
   style="font-size:12;font-weight:normal;font-family:FreeSans;text-anchor:middle;"
   id="text799"
   xml:space="preserve"><tspan
   x="102.968018"
   y="47.3921776"
   id="tspan800">Toepassings-</tspan><tspan
   x="102.968018"
   y="59.3921776"
   id="tspan802">software</tspan></text><text
   x="87.3662415"
   y="97.3557205"
   transform="scale(1.589604,1.589604)"
   style="font-size:12;font-weight:normal;font-family:FreeSans;"
   id="text804"
   xml:space="preserve"><tspan
   id="tspan805">Hulpprogramma's</tspan></text><text
   x="81.1959991"
   y="146.819504"
   transform="scale(1.589604,1.589604)"
   style="font-size:12;font-weight:normal;font-family:FreeSans;"
   id="text807"
   xml:space="preserve"><tspan
   id="tspan808">Besturingssysteem</tspan></text><text
   x="-204.122757"
   y="34.734066"
   transform="matrix(1.285542e-16,-2.099519,2.099519,1.285542e-16,0,0)"
   style="font-size:12;font-weight:normal;font-family:FreeSans;"
   id="text810"
   xml:space="preserve"><tspan
   id="tspan811">Hardware</tspan></text><text
   x="-96.0220718"
   y="35.0412865"
   transform="matrix(1.285542e-16,-2.099519,2.099519,1.285542e-16,0,0)"
   style="font-size:12;font-weight:normal;font-family:FreeSans;"
   id="text813"
   xml:space="preserve"><tspan
   id="tspan814">Software</tspan></text><text
   x="78.1164093"
   y="194.526932"
   transform="scale(1.589604,1.589604)"
   style="font-size:12;font-weight:normal;font-family:FreeSans;"
   id="text816"
   xml:space="preserve"><tspan
   id="tspan817">Machine-instructies</tspan></text><text
   x="78.8946686"
   y="239.256378"
   transform="scale(1.589604,1.589604)"
   style="font-size:12;font-weight:normal;font-family:FreeSans;"
   id="text819"
   xml:space="preserve"><tspan
   id="tspan820">Microprogrammatie</tspan></text><text
   x="76.0448151"
   y="285.071747"
   transform="scale(1.589604,1.589604)"
   style="font-size:12;font-weight:normal;font-family:FreeSans;"
   id="text822"
   xml:space="preserve"><tspan
   id="tspan823">Fysische onderdelen</tspan></text><path
   d="M 351.1033 263.2571 L 50.50018 264.5182 "
   style="font-size:12;fill:none;fill-rule:evenodd;stroke:#000000;stroke-width:1.020267;stroke-dasharray:4.081 4.081 ;stroke-dashoffset:0;"
   id="path825" /><path
   d="M 351.1033 41.16863 L 50.50018 42.42973 "
   style="font-size:12;fill:none;fill-rule:evenodd;stroke:#000000;stroke-width:1.020267;stroke-dasharray:4.081 4.081 ;stroke-dashoffset:0;"
   id="path826" /><text
   x="75.9211807"
   y="16.1685696"
   transform="scale(2.030053,2.030053)"
   style="font-size:12;font-weight:normal;font-family:FreeSans;"
   id="text827"
   xml:space="preserve"><tspan
   id="tspan828">Gebruiker</tspan></text><text
   x="-122.322441"
   y="183.951141"
   transform="matrix(1.243008e-16,-2.030053,2.030053,1.243008e-16,0,0)"
   style="font-size:12;font-weight:normal;font-family:FreeSans;"
   id="text830"
   xml:space="preserve"><tspan
   id="tspan831">Systeemsoftware</tspan></text><path
   d="M 333.0795 208.6258 L 354.6153 166.227 "
   style="font-size:12;fill:none;fill-rule:evenodd;stroke:#000000;stroke-width:1.277205;"
   id="path833" /><path
   d="M 354.6153 153.2282 L 333.0795 110.8295 "
   style="font-size:12;fill:none;fill-rule:evenodd;stroke:#000000;stroke-width:1.277205;"
   id="path834" /></svg>
